<svg xmlns="http://www.w3.org/2000/svg" xmlns:xlink="http://www.w3.org/1999/xlink" width="250" zoomAndPan="magnify" viewBox="0 0 187.5 149.999998" height="200" preserveAspectRatio="xMidYMid meet" version="1.0"><defs><g/><clipPath id="0409639793"><path d="M 65.175781 87.289062 L 71.160156 87.289062 L 71.160156 93.273438 L 65.175781 93.273438 Z M 65.175781 87.289062 " clip-rule="nonzero"/></clipPath></defs><g clip-path="url(#0409639793)"><path fill="#800000" d="M 71.472656 90.441406 C 71.472656 90.859375 71.394531 91.257812 71.234375 91.644531 C 71.074219 92.03125 70.847656 92.371094 70.550781 92.667969 C 70.257812 92.960938 69.914062 93.191406 69.53125 93.351562 C 69.144531 93.507812 68.742188 93.589844 68.324219 93.589844 C 67.90625 93.589844 67.503906 93.507812 67.121094 93.351562 C 66.734375 93.191406 66.394531 92.960938 66.097656 92.667969 C 65.800781 92.371094 65.574219 92.03125 65.414062 91.644531 C 65.253906 91.257812 65.175781 90.859375 65.175781 90.441406 C 65.175781 90.023438 65.253906 89.621094 65.414062 89.234375 C 65.574219 88.847656 65.800781 88.507812 66.097656 88.210938 C 66.394531 87.917969 66.734375 87.691406 67.121094 87.53125 C 67.503906 87.371094 67.90625 87.289062 68.324219 87.289062 C 68.742188 87.289062 69.144531 87.371094 69.53125 87.53125 C 69.914062 87.691406 70.257812 87.917969 70.550781 88.210938 C 70.847656 88.507812 71.074219 88.847656 71.234375 89.234375 C 71.394531 89.621094 71.472656 90.023438 71.472656 90.441406 Z M 71.472656 90.441406 " fill-opacity="1" fill-rule="nonzero"/></g><g fill="#52b43e" fill-opacity="1"><g transform="translate(3.587484, 94.147081)"><g><path d="M 1.515625 0 L 1.515625 -34.3125 L 8.34375 -34.3125 L 8.34375 -22.046875 L 11.59375 -22.046875 L 11.59375 -34.3125 L 18.421875 -34.3125 L 18.421875 0 L 11.59375 0 L 11.59375 -15.578125 L 8.34375 -15.578125 L 8.34375 0 Z M 1.515625 0 "/></g></g></g><g fill="#52b43e" fill-opacity="1"><g transform="translate(23.517326, 94.147081)"><g><path d="M 1.515625 -34.3125 L 10.828125 -34.3125 C 13.328125 -34.3125 15.144531 -33.695312 16.28125 -32.46875 C 17.414062 -31.25 17.984375 -29.253906 17.984375 -26.484375 L 17.984375 -24.96875 C 17.984375 -21.695312 16.8125 -19.738281 14.46875 -19.09375 C 15.90625 -18.71875 16.914062 -17.851562 17.5 -16.5 C 18.082031 -15.144531 18.375 -13.347656 18.375 -11.109375 C 18.375 -7.460938 17.828125 -4.695312 16.734375 -2.8125 C 15.648438 -0.9375 13.679688 0 10.828125 0 L 1.515625 0 Z M 9.625 -21.421875 C 10.207031 -21.421875 10.601562 -21.640625 10.8125 -22.078125 C 11.03125 -22.515625 11.140625 -23.132812 11.140625 -23.9375 L 11.140625 -27.375 C 11.140625 -28.488281 10.648438 -29.046875 9.671875 -29.046875 L 8.234375 -29.046875 L 8.234375 -21.421875 Z M 8.90625 -6.03125 C 10.695312 -6.03125 11.59375 -6.882812 11.59375 -8.59375 L 11.59375 -12.859375 C 11.59375 -13.898438 11.4375 -14.6875 11.125 -15.21875 C 10.820312 -15.75 10.285156 -16.015625 9.515625 -16.015625 L 8.234375 -16.015625 L 8.234375 -6.078125 Z M 8.90625 -6.03125 "/></g></g></g><g fill="#52b43e" fill-opacity="1"><g transform="translate(42.648378, 94.147081)"><g><path d="M 9.671875 0.3125 C 6.554688 0.3125 4.304688 -0.457031 2.921875 -2 C 1.535156 -3.539062 0.84375 -6.03125 0.84375 -9.46875 L 0.84375 -12.828125 L 7.59375 -12.828125 L 7.59375 -8.546875 C 7.59375 -6.847656 8.140625 -6 9.234375 -6 C 9.835938 -6 10.257812 -6.175781 10.5 -6.53125 C 10.75 -6.894531 10.875 -7.5 10.875 -8.34375 C 10.875 -9.46875 10.738281 -10.394531 10.46875 -11.125 C 10.195312 -11.851562 9.851562 -12.460938 9.4375 -12.953125 C 9.03125 -13.453125 8.296875 -14.222656 7.234375 -15.265625 L 4.28125 -18.21875 C 1.988281 -20.457031 0.84375 -22.9375 0.84375 -25.65625 C 0.84375 -28.582031 1.515625 -30.8125 2.859375 -32.34375 C 4.203125 -33.875 6.164062 -34.640625 8.75 -34.640625 C 11.84375 -34.640625 14.066406 -33.816406 15.421875 -32.171875 C 16.773438 -30.535156 17.453125 -27.972656 17.453125 -24.484375 L 10.46875 -24.484375 L 10.421875 -26.84375 C 10.421875 -27.300781 10.296875 -27.660156 10.046875 -27.921875 C 9.796875 -28.191406 9.441406 -28.328125 8.984375 -28.328125 C 8.453125 -28.328125 8.050781 -28.179688 7.78125 -27.890625 C 7.519531 -27.597656 7.390625 -27.195312 7.390625 -26.6875 C 7.390625 -25.570312 8.03125 -24.414062 9.3125 -23.21875 L 13.296875 -19.375 C 14.234375 -18.46875 15.007812 -17.609375 15.625 -16.796875 C 16.238281 -15.984375 16.726562 -15.023438 17.09375 -13.921875 C 17.46875 -12.816406 17.65625 -11.503906 17.65625 -9.984375 C 17.65625 -6.609375 17.035156 -4.046875 15.796875 -2.296875 C 14.554688 -0.554688 12.515625 0.3125 9.671875 0.3125 Z M 9.671875 0.3125 "/></g></g></g><g fill="#52b43e" fill-opacity="1"><g transform="translate(81.966857, 89.380083)"><g><path d="M 20.625 -17.6875 L 20.625 -2.953125 C 20.625 0.285156 19.78125 2.691406 18.09375 4.265625 C 16.40625 5.847656 13.9375 6.640625 10.6875 6.640625 C 8.976562 6.640625 7.351562 6.429688 5.8125 6.015625 C 4.28125 5.597656 3.007812 4.992188 2 4.203125 L 4.046875 0.53125 C 4.785156 1.144531 5.722656 1.628906 6.859375 1.984375 C 8.003906 2.347656 9.148438 2.53125 10.296875 2.53125 C 12.066406 2.53125 13.375 2.128906 14.21875 1.328125 C 15.0625 0.523438 15.484375 -0.679688 15.484375 -2.296875 L 15.484375 -3.0625 C 14.148438 -1.59375 12.289062 -0.859375 9.90625 -0.859375 C 8.28125 -0.859375 6.789062 -1.210938 5.4375 -1.921875 C 4.09375 -2.640625 3.023438 -3.644531 2.234375 -4.9375 C 1.441406 -6.226562 1.046875 -7.71875 1.046875 -9.40625 C 1.046875 -11.09375 1.441406 -12.582031 2.234375 -13.875 C 3.023438 -15.175781 4.09375 -16.179688 5.4375 -16.890625 C 6.789062 -17.597656 8.28125 -17.953125 9.90625 -17.953125 C 12.46875 -17.953125 14.414062 -17.109375 15.75 -15.421875 L 15.75 -17.6875 Z M 10.921875 -5.0625 C 12.273438 -5.0625 13.382812 -5.460938 14.25 -6.265625 C 15.125 -7.066406 15.5625 -8.113281 15.5625 -9.40625 C 15.5625 -10.695312 15.125 -11.742188 14.25 -12.546875 C 13.382812 -13.347656 12.273438 -13.75 10.921875 -13.75 C 9.554688 -13.75 8.4375 -13.347656 7.5625 -12.546875 C 6.6875 -11.742188 6.25 -10.695312 6.25 -9.40625 C 6.25 -8.113281 6.6875 -7.066406 7.5625 -6.265625 C 8.4375 -5.460938 9.554688 -5.0625 10.921875 -5.0625 Z M 10.921875 -5.0625 "/></g></g></g><g fill="#52b43e" fill-opacity="1"><g transform="translate(104.980517, 89.380083)"><g><path d="M 7.265625 -15.359375 C 7.878906 -16.210938 8.707031 -16.859375 9.75 -17.296875 C 10.789062 -17.734375 11.992188 -17.953125 13.359375 -17.953125 L 13.359375 -13.21875 C 12.785156 -13.257812 12.398438 -13.28125 12.203125 -13.28125 C 10.734375 -13.28125 9.582031 -12.867188 8.75 -12.046875 C 7.914062 -11.234375 7.5 -10.003906 7.5 -8.359375 L 7.5 0 L 2.375 0 L 2.375 -17.6875 L 7.265625 -17.6875 Z M 7.265625 -15.359375 "/></g></g></g><g fill="#52b43e" fill-opacity="1"><g transform="translate(119.150343, 89.380083)"><g><path d="M 19.703125 -8.78125 C 19.703125 -8.71875 19.671875 -8.257812 19.609375 -7.40625 L 6.21875 -7.40625 C 6.457031 -6.300781 7.023438 -5.429688 7.921875 -4.796875 C 8.828125 -4.160156 9.945312 -3.84375 11.28125 -3.84375 C 12.195312 -3.84375 13.007812 -3.976562 13.71875 -4.25 C 14.4375 -4.53125 15.101562 -4.96875 15.71875 -5.5625 L 18.453125 -2.59375 C 16.785156 -0.6875 14.351562 0.265625 11.15625 0.265625 C 9.15625 0.265625 7.382812 -0.125 5.84375 -0.90625 C 4.3125 -1.6875 3.128906 -2.765625 2.296875 -4.140625 C 1.460938 -5.523438 1.046875 -7.09375 1.046875 -8.84375 C 1.046875 -10.582031 1.457031 -12.144531 2.28125 -13.53125 C 3.101562 -14.925781 4.234375 -16.007812 5.671875 -16.78125 C 7.109375 -17.5625 8.710938 -17.953125 10.484375 -17.953125 C 12.222656 -17.953125 13.789062 -17.578125 15.1875 -16.828125 C 16.59375 -16.085938 17.695312 -15.019531 18.5 -13.625 C 19.300781 -12.238281 19.703125 -10.625 19.703125 -8.78125 Z M 10.53125 -14.078125 C 9.363281 -14.078125 8.382812 -13.75 7.59375 -13.09375 C 6.800781 -12.4375 6.320312 -11.535156 6.15625 -10.390625 L 14.859375 -10.390625 C 14.691406 -11.515625 14.210938 -12.410156 13.421875 -13.078125 C 12.628906 -13.742188 11.664062 -14.078125 10.53125 -14.078125 Z M 10.53125 -14.078125 "/></g></g></g><g fill="#52b43e" fill-opacity="1"><g transform="translate(139.895503, 89.380083)"><g><path d="M 19.703125 -8.78125 C 19.703125 -8.71875 19.671875 -8.257812 19.609375 -7.40625 L 6.21875 -7.40625 C 6.457031 -6.300781 7.023438 -5.429688 7.921875 -4.796875 C 8.828125 -4.160156 9.945312 -3.84375 11.28125 -3.84375 C 12.195312 -3.84375 13.007812 -3.976562 13.71875 -4.25 C 14.4375 -4.53125 15.101562 -4.96875 15.71875 -5.5625 L 18.453125 -2.59375 C 16.785156 -0.6875 14.351562 0.265625 11.15625 0.265625 C 9.15625 0.265625 7.382812 -0.125 5.84375 -0.90625 C 4.3125 -1.6875 3.128906 -2.765625 2.296875 -4.140625 C 1.460938 -5.523438 1.046875 -7.09375 1.046875 -8.84375 C 1.046875 -10.582031 1.457031 -12.144531 2.28125 -13.53125 C 3.101562 -14.925781 4.234375 -16.007812 5.671875 -16.78125 C 7.109375 -17.5625 8.710938 -17.953125 10.484375 -17.953125 C 12.222656 -17.953125 13.789062 -17.578125 15.1875 -16.828125 C 16.59375 -16.085938 17.695312 -15.019531 18.5 -13.625 C 19.300781 -12.238281 19.703125 -10.625 19.703125 -8.78125 Z M 10.53125 -14.078125 C 9.363281 -14.078125 8.382812 -13.75 7.59375 -13.09375 C 6.800781 -12.4375 6.320312 -11.535156 6.15625 -10.390625 L 14.859375 -10.390625 C 14.691406 -11.515625 14.210938 -12.410156 13.421875 -13.078125 C 12.628906 -13.742188 11.664062 -14.078125 10.53125 -14.078125 Z M 10.53125 -14.078125 "/></g></g></g><g fill="#52b43e" fill-opacity="1"><g transform="translate(160.640663, 89.380083)"><g><path d="M 13.125 -17.953125 C 15.3125 -17.953125 17.078125 -17.296875 18.421875 -15.984375 C 19.773438 -14.671875 20.453125 -12.71875 20.453125 -10.125 L 20.453125 0 L 15.328125 0 L 15.328125 -9.34375 C 15.328125 -10.75 15.019531 -11.796875 14.40625 -12.484375 C 13.789062 -13.171875 12.898438 -13.515625 11.734375 -13.515625 C 10.441406 -13.515625 9.410156 -13.113281 8.640625 -12.3125 C 7.878906 -11.507812 7.5 -10.320312 7.5 -8.75 L 7.5 0 L 2.375 0 L 2.375 -17.6875 L 7.265625 -17.6875 L 7.265625 -15.625 C 7.941406 -16.363281 8.785156 -16.9375 9.796875 -17.34375 C 10.804688 -17.75 11.914062 -17.953125 13.125 -17.953125 Z M 13.125 -17.953125 "/></g></g></g></svg>