<svg xmlns="http://www.w3.org/2000/svg" xmlns:xlink="http://www.w3.org/1999/xlink" width="200" zoomAndPan="magnify" viewBox="0 0 150 149.999998" height="200" preserveAspectRatio="xMidYMid meet" version="1.0"><defs><filter x="0%" y="0%" width="100%" height="100%" id="e909b2e922"><feColorMatrix values="0 0 0 0 1 0 0 0 0 1 0 0 0 0 1 0 0 0 1 0" color-interpolation-filters="sRGB"/></filter><mask id="3531a71885"><g filter="url(#e909b2e922)"><rect x="-15" width="180" fill="#000000" y="-15" height="179.999997" fill-opacity="0.03"/></g></mask><clipPath id="58f4b4de91"><path d="M 0.730469 33 L 48 33 L 48 91.257812 L 0.730469 91.257812 Z M 0.730469 33 " clip-rule="nonzero"/></clipPath><clipPath id="bbf4a565ad"><path d="M 45 0.507812 L 104.839844 0.507812 L 104.839844 84 L 45 84 Z M 45 0.507812 " clip-rule="nonzero"/></clipPath><clipPath id="e757d45319"><rect x="0" width="105" y="0" height="92"/></clipPath></defs><g mask="url(#3531a71885)"><g transform="matrix(1, 0, 0, 1, 19, 26)"><g clip-path="url(#e757d45319)"><g clip-path="url(#58f4b4de91)"><path fill="#009245" d="M 36.917969 89.496094 C 34.734375 88.742188 32.523438 88.023438 30.363281 87.222656 C 24.6875 85.113281 19.214844 82.351562 14.554688 78.484375 C 9.898438 74.617188 6.082031 69.605469 4.234375 63.855469 C 3.003906 60.039062 2.652344 56.007812 2.3125 52.015625 C 1.785156 45.902344 1.257812 39.773438 0.730469 33.660156 C 4.488281 39.976562 10.636719 44.519531 17.09375 48.035156 C 23.546875 51.550781 30.453125 54.199219 36.867188 57.765625 C 40.09375 59.5625 43.296875 61.683594 45.242188 64.808594 C 47.300781 68.136719 47.714844 72.242188 47.4375 76.148438 C 47.199219 79.550781 46.472656 82.925781 46.722656 86.332031 C 46.847656 88.011719 47.214844 89.882812 47.789062 91.589844 C 47.691406 91.539062 47.578125 91.503906 47.476562 91.453125 C 45.078125 90.398438 42.730469 89.167969 40.484375 87.785156 C 35.976562 85 31.859375 81.570312 28.140625 77.703125 C 27.6875 77.214844 27.238281 76.710938 26.785156 76.222656 L 26.445312 75.847656 C 26.332031 75.722656 26.21875 75.59375 26.121094 75.46875 L 25.46875 74.703125 L 24.8125 73.9375 L 24.488281 73.546875 C 24.375 73.421875 24.285156 73.285156 24.171875 73.148438 L 22.941406 71.550781 C 22.84375 71.414062 22.730469 71.289062 22.628906 71.152344 L 22.339844 70.734375 L 21.160156 69.078125 C 21.058594 68.941406 20.960938 68.800781 20.871094 68.664062 L 20.59375 68.238281 L 19.492188 66.542969 L 19.214844 66.117188 C 19.125 65.976562 19.039062 65.828125 18.949219 65.675781 L 18.4375 64.808594 C 15.660156 60.164062 13.339844 55.21875 11.441406 50.105469 C 12.960938 55.34375 14.933594 60.464844 17.40625 65.375 L 17.871094 66.292969 C 17.945312 66.441406 18.019531 66.605469 18.109375 66.757812 L 18.359375 67.207031 L 19.351562 69.015625 L 19.601562 69.46875 C 19.691406 69.617188 19.777344 69.757812 19.867188 69.90625 L 20.945312 71.664062 L 21.210938 72.105469 C 21.296875 72.253906 21.398438 72.394531 21.5 72.53125 L 22.640625 74.25 C 22.742188 74.390625 22.832031 74.539062 22.929688 74.679688 L 23.230469 75.09375 L 23.835938 75.933594 L 24.449219 76.777344 C 24.550781 76.914062 24.652344 77.050781 24.765625 77.191406 L 25.089844 77.589844 C 25.515625 78.132812 25.945312 78.683594 26.382812 79.222656 C 29.523438 83.003906 33.011719 86.480469 36.917969 89.496094 Z M 36.917969 89.496094 " fill-opacity="1" fill-rule="nonzero"/></g><g clip-path="url(#bbf4a565ad)"><path fill="#009245" d="M 102.847656 46.226562 C 100.171875 54.804688 94.484375 62.199219 87.71875 68.113281 C 85.445312 70.097656 83.035156 71.929688 80.449219 73.5 C 76.617188 75.820312 72.351562 77.339844 68.167969 78.910156 C 64.265625 80.367188 60.347656 81.773438 56.417969 83.152344 C 55.765625 83.378906 55.097656 83.617188 54.445312 83.84375 C 54.496094 83.542969 54.546875 83.242188 54.597656 82.953125 L 54.710938 82.324219 C 54.746094 82.113281 54.785156 81.910156 54.835938 81.695312 L 55.109375 80.453125 L 55.1875 80.140625 L 55.261719 79.828125 L 55.589844 78.570312 C 55.636719 78.355469 55.6875 78.15625 55.765625 77.941406 C 56.253906 76.285156 56.78125 74.640625 57.410156 72.996094 L 57.875 71.765625 C 57.949219 71.566406 58.023438 71.351562 58.113281 71.152344 L 58.363281 70.546875 L 58.878906 69.328125 L 59.128906 68.726562 C 59.214844 68.527344 59.316406 68.324219 59.40625 68.125 C 59.769531 67.320312 60.132812 66.515625 60.511719 65.726562 L 61.691406 63.351562 C 61.878906 62.953125 62.105469 62.5625 62.304688 62.171875 L 62.933594 60.992188 C 63.148438 60.605469 63.347656 60.203125 63.5625 59.8125 L 64.226562 58.65625 L 64.890625 57.503906 C 65.117188 57.113281 65.332031 56.722656 65.570312 56.347656 L 66.964844 54.0625 C 67.414062 53.296875 67.917969 52.542969 68.394531 51.800781 C 68.882812 51.046875 69.363281 50.296875 69.863281 49.554688 L 71.382812 47.332031 L 72.148438 46.226562 L 72.335938 45.949219 L 72.539062 45.675781 L 72.925781 45.136719 L 74.507812 42.949219 C 74.773438 42.585938 75.035156 42.222656 75.300781 41.859375 L 76.117188 40.777344 C 77.207031 39.347656 78.277344 37.902344 79.417969 36.496094 C 83.886719 30.847656 88.609375 25.371094 93.492188 20.046875 C 88.195312 24.96875 83.023438 30.042969 78.085938 35.355469 C 76.832031 36.671875 75.640625 38.027344 74.421875 39.382812 L 73.515625 40.402344 C 73.214844 40.742188 72.925781 41.09375 72.625 41.429688 L 70.855469 43.503906 L 70.417969 44.015625 L 70.191406 44.28125 L 69.976562 44.542969 L 69.109375 45.597656 L 67.390625 47.722656 C 66.824219 48.4375 66.273438 49.164062 65.71875 49.894531 C 65.167969 50.621094 64.601562 51.335938 64.074219 52.078125 L 62.457031 54.300781 C 62.179688 54.664062 61.929688 55.054688 61.664062 55.429688 L 60.886719 56.5625 L 60.109375 57.691406 C 59.855469 58.066406 59.605469 58.457031 59.355469 58.847656 L 58.613281 60 C 58.363281 60.390625 58.113281 60.765625 57.875 61.167969 L 56.441406 63.542969 C 55.976562 64.34375 55.539062 65.148438 55.074219 65.964844 C 54.960938 66.164062 54.847656 66.367188 54.734375 66.566406 L 54.40625 67.183594 L 53.765625 68.425781 L 53.441406 69.042969 C 53.328125 69.242188 53.238281 69.457031 53.140625 69.667969 L 52.535156 70.9375 C 51.734375 72.621094 51.019531 74.363281 50.339844 76.121094 C 50.25 76.335938 50.175781 76.5625 50.101562 76.789062 L 49.863281 77.453125 L 49.8125 77.617188 C 49.8125 77.566406 49.8125 77.503906 49.8125 77.453125 C 49.789062 75.847656 49.660156 74.1875 49.484375 72.59375 C 49.160156 69.644531 48.65625 66.933594 48.316406 65.273438 C 48.105469 64.21875 47.953125 63.578125 47.941406 63.554688 C 46.007812 57.550781 44.890625 51.335938 47.199219 45.234375 C 48.84375 40.890625 51.972656 37.464844 55.636719 34.527344 C 58.1875 32.480469 61 30.644531 63.738281 28.914062 C 64.816406 28.222656 65.882812 27.542969 66.964844 26.839844 C 69.222656 25.386719 71.484375 23.902344 73.71875 22.371094 C 79.429688 18.453125 84.941406 14.261719 89.789062 9.4375 C 92.550781 6.6875 95.089844 3.75 97.335938 0.539062 C 99.933594 7.894531 102.472656 15.328125 103.800781 23.011719 C 105.09375 30.734375 105.15625 38.769531 102.847656 46.226562 Z M 102.847656 46.226562 " fill-opacity="1" fill-rule="nonzero"/></g></g></g></g></svg>